<?xml version="1.0" encoding="utf-8"?>
<!-- Generator: Adobe Illustrator 16.0.0, SVG Export Plug-In . SVG Version: 6.00 Build 0)  -->
<!DOCTYPE svg PUBLIC "-//W3C//DTD SVG 1.1//EN" "http://www.w3.org/Graphics/SVG/1.1/DTD/svg11.dtd">
<svg version="1.1" id="Logo" xmlns="http://www.w3.org/2000/svg" xmlns:xlink="http://www.w3.org/1999/xlink" x="0px" y="0px"
	 width="1024px" height="1024px" viewBox="0 0 1024 1024" enable-background="new 0 0 1024 1024" xml:space="preserve">
<g>
	<g>
		
			<linearGradient id="SVGID_1_" gradientUnits="userSpaceOnUse" x1="559.0117" y1="65.3579" x2="559.0117" y2="611.9585" gradientTransform="matrix(0.6495 0.7604 -0.7604 0.6495 557.499 -233.5605)">
			<stop  offset="0" style="stop-color:#F44336"/>
			<stop  offset="0.2" style="stop-color:#FF9800"/>
			<stop  offset="0.4" style="stop-color:#FFEB3B"/>
			<stop  offset="0.6" style="stop-color:#4CAF50"/>
			<stop  offset="0.8" style="stop-color:#03A9F4"/>
			<stop  offset="1" style="stop-color:#9C27B0"/>
		</linearGradient>
		<path fill="url(#SVGID_1_)" stroke="#000000" stroke-width="29" stroke-miterlimit="10" d="M911.995,282.129l-82.221-96.267
			c-74.362-87.065-205.685-97.47-292.75-23.107l-55.509,47.41c-51.783,44.228-78.256,110.237-71.738,177.919l-8.213,7.015
			c-35.661,30.458-39.9,84.316-9.441,119.979l126.19,147.746c30.459,35.662,84.315,39.902,119.979,9.441l8.213-7.014
			c65.753,17.092,135.167,1.203,186.951-43.025l55.509-47.411C976.095,500.528,986.358,369.195,911.995,282.129z M678.232,262.954
			c22.472,26.31,19.343,66.067-6.967,88.539c-26.311,22.471-66.067,19.342-88.539-6.967c-22.472-26.31-19.343-66.067,6.968-88.539
			C616.003,233.516,655.761,236.643,678.232,262.954z M590.146,529.668c-4.677,0.837-9.576-0.896-12.693-4.547l-40.071-46.916
			c-3.118-3.649-4.062-8.761-2.505-13.247c1.637-4.554,5.514-7.865,10.266-8.768l60.608-11.262c4.754-0.903,9.653,0.83,12.771,4.48
			c3.117,3.649,4.063,8.76,2.503,13.249l-20.601,58.101C598.776,525.452,594.897,528.765,590.146,529.668z M805.183,508.287
			c-26.31,22.472-66.067,19.342-88.539-6.968c-22.472-26.311-19.343-66.067,6.968-88.539c26.31-22.471,66.067-19.343,88.538,6.968
			C834.621,446.058,831.569,485.751,805.183,508.287z"/>
	</g>
	<g>
		<polygon fill="#B2B2B2" points="78.938,331.116 213.822,93.907 485.915,93.907 618.474,331.116 483.59,928.791 213.822,928.791 		
			"/>
		<g>
			<g>
				<path d="M633.117,322.865l-135.855-235.3c-2.612-4.542-7.482-7.345-12.705-7.345H212.846c-5.237,0-10.093,2.802-12.705,7.345
					l-135.855,235.3c-1.849,3.197-2.421,6.978-1.605,10.583l135.856,598.905c1.509,6.693,7.454,11.427,14.309,11.427h271.711
					c6.855,0,12.787-4.733,14.31-11.427l135.855-598.905C635.537,329.843,634.967,326.062,633.117,322.865z M472.833,914.398
					H224.571L92.591,332.563l128.742-222.976H476.07l128.729,222.976L472.833,914.398z"/>
			</g>
		</g>
		<g>
			<g>
				<path d="M549.955,335.447l-97.878-169.589c-2.64-4.542-7.481-7.332-12.732-7.332H258.059c-5.251,0-10.093,2.789-12.718,7.332
					l-97.906,169.589c-1.851,3.196-2.421,6.978-1.605,10.596l115.235,508.018c1.51,6.692,7.454,11.425,14.323,11.425h146.655
					c6.855,0,12.786-4.732,14.31-11.425l115.236-508.018C552.404,342.425,551.805,338.643,549.955,335.447z M410.292,836.106
					H287.099L175.74,345.145l90.793-157.265h164.325l90.806,157.265L410.292,836.106z"/>
			</g>
		</g>
		<g>
			<g>
				<path d="M457.68,319.873h-69.724v-73.478c0-8.106-6.583-14.676-14.689-14.676h-49.131c-8.106,0-14.676,6.57-14.676,14.676
					v73.478h-69.724c-8.107,0-14.677,6.569-14.677,14.677v49.143c0,8.107,6.57,14.677,14.677,14.677h69.724V598.29
					c0,8.106,6.569,14.663,14.676,14.663h49.131c8.106,0,14.689-6.557,14.689-14.663V398.369h69.724
					c8.107,0,14.663-6.569,14.663-14.677V334.55C472.343,326.442,465.788,319.873,457.68,319.873z M442.99,369.003h-69.723
					c-8.107,0-14.677,6.583-14.677,14.689V583.6h-19.777V383.692c0-8.106-6.569-14.689-14.677-14.689h-69.723v-19.764h69.723
					c8.107,0,14.677-6.57,14.677-14.676v-73.478h19.777v73.478c0,8.106,6.569,14.676,14.677,14.676h69.723V369.003z"/>
			</g>
		</g>
	</g>
</g>
</svg>
